<?xml version="1.0" encoding="utf-8" ?>
<svg xmlns="http://www.w3.org/2000/svg" xmlns:xlink="http://www.w3.org/1999/xlink" width="1024" height="370">
	<path fill="#457B5D" d="M227.2 10.173C242.133 6.32828 264.364 21.5409 278.002 27.3236C287.744 31.4544 297.667 34.7921 307.805 37.8079C318.952 41.1238 330.365 43.5604 341.705 46.1092C348.073 47.5404 355.067 48.5727 361.086 51.0814C367.332 53.6848 371.329 57.4617 373.904 63.7445C375.366 67.3112 376.005 71.0672 376.3 74.8946C377.43 89.5537 376.428 106.834 376.402 121.75C376.355 148.708 377.8 178.474 373.922 205.016Q373.059 210.765 371.828 216.446Q370.596 222.127 369.001 227.717Q367.406 233.308 365.454 238.783Q363.501 244.259 361.2 249.597C342.405 294.118 309.415 324.015 267.434 346.74C257.715 352.001 247.577 357.236 237.337 361.398Q237.124 361.429 236.911 361.458C232.952 361.994 229.264 361.838 225.412 360.751C220.051 359.237 214.954 356.322 209.998 353.812C193.208 345.311 177.086 335.956 162.06 324.582C132.122 301.92 110.987 273.714 98.6879 238.18C94.7933 226.928 91.687 215.503 90.0652 203.696C88.0969 189.366 88.0966 175.165 88.0779 160.744L88.1543 115.848L87.9397 90.0359C87.8882 84.7463 87.5852 79.2724 88.1827 74.0169C88.7784 68.7765 90.0154 63.2384 93.2937 58.9699Q93.6283 58.5346 93.9883 58.12Q94.3627 57.6885 94.7594 57.2774C97.5911 54.3413 101.157 52.1475 104.971 50.7324C112.452 47.9565 120.963 46.9019 128.75 45.0976C146.135 41.0691 163.312 36.8297 179.972 30.3203C194.783 24.533 211.992 12.213 227.2 10.173ZM234.682 341.897C287.113 316.705 328.098 287.399 348.116 230.323C352.893 216.7 355.512 202.292 357.008 187.96C358.043 178.047 357.934 168.135 357.978 158.187Q358.229 138.689 357.945 119.191C357.881 107.044 358.959 94.4872 358.12 82.3995C357.935 79.7354 357.421 77.1201 356.253 74.7022C354.615 71.3099 351.014 69.822 347.628 68.6482C340.301 66.108 332.231 64.859 324.694 62.9683C310.03 59.2897 295.275 55.1803 281.02 50.136C267.702 45.4234 241.34 28.0711 229.2 29.0393C229.017 29.0539 228.834 29.0813 228.652 29.1061C221.828 30.245 199.364 43.6164 190.614 47.4141C174.308 54.4913 155.956 59.8763 138.599 63.7274C131.186 65.3721 112.894 67.4172 108.475 73.5014C107.172 75.2949 106.722 78.1687 106.554 80.3438C105.553 93.3395 106.595 108.596 106.606 121.826C106.623 141.954 105.842 162.381 106.763 182.478Q107.404 194.44 109.477 206.238C118.253 253.724 144.275 289.748 183.659 316.757C190.064 321.149 226.831 343.619 232.257 342.768C233.064 342.642 233.96 342.278 234.682 341.897Z"/>
	<path fill="#353F41" d="M192.894 170.798C200.112 178.953 208.622 186.24 216.371 193.919L269.65 246.889Q269.049 247.868 268.406 248.819Q267.809 249.712 267.169 250.575Q266.528 251.437 265.846 252.267Q265.163 253.096 264.44 253.89Q263.717 254.685 262.955 255.442Q262.193 256.2 261.395 256.919Q260.597 257.637 259.763 258.315Q258.93 258.993 258.064 259.629Q257.198 260.265 256.302 260.857Q255.405 261.448 254.48 261.995Q253.555 262.541 252.605 263.041Q251.654 263.541 250.679 263.993Q249.704 264.445 248.709 264.847Q247.713 265.25 246.698 265.603Q245.683 265.956 244.652 266.257Q243.621 266.559 242.577 266.809Q241.532 267.059 240.476 267.257Q239.43 267.446 238.377 267.584Q237.323 267.723 236.264 267.809Q235.204 267.896 234.142 267.93Q233.08 267.965 232.018 267.948Q230.955 267.931 229.895 267.862Q228.834 267.793 227.778 267.672Q226.722 267.552 225.674 267.38Q224.625 267.208 223.586 266.985Q222.547 266.762 221.52 266.488Q220.493 266.215 219.481 265.892Q218.468 265.569 217.473 265.197Q216.477 264.824 215.501 264.404Q214.525 263.984 213.571 263.516Q212.616 263.049 211.686 262.536Q210.756 262.022 209.851 261.464Q208.947 260.906 208.071 260.304C195.942 251.956 188.267 238.067 185.64 223.771C181.492 226.935 177.79 229.492 172.789 231.221C171.881 240.657 171.355 251.451 171.514 260.91C171.583 265.022 172.447 269.225 172.35 273.309C172.323 274.451 171.776 275.282 171.118 276.172C170.049 276.735 169.533 277.036 168.282 276.919C166.428 276.744 164.673 275.275 163.55 273.874C162.915 273.081 162.566 272.238 162.443 271.232C161.672 264.892 162.784 257.669 163.125 251.298C163.591 242.596 163.737 233.892 164.549 225.206C170.46 219.512 178.113 215.197 184.49 209.983C184.505 203.501 184.575 196.593 185.941 190.244C180.089 189.503 173.703 189.778 168.011 188.386Q163.243 194.277 159.142 200.65C156.254 205.073 153.179 212.12 149.134 215.481C147.546 216.802 145.517 218.028 143.365 217.792C142.309 217.677 141.411 217.216 140.759 216.37C139.95 215.319 139.769 213.897 139.971 212.615C140.473 209.446 161.82 181.211 165.552 178.471C169.952 175.24 183.05 179.325 188.49 180.132Q190.619 175.431 192.894 170.798Z"/>
	<path fill="#353F41" d="M282.563 72.5496C283.215 72.5151 283.878 72.4816 284.53 72.5375C285.927 72.6574 287.078 73.3265 287.961 74.4008C288.932 75.5814 289.687 77.1397 289.46 78.7057C288.743 83.6459 283.756 81.8024 281.122 83.7824C269.624 92.4239 279.43 118.128 277.258 131.473C275.932 139.616 269.634 147.316 263.108 152.016C264.903 154.557 266.624 157.063 268.104 159.807C270.443 159.229 272.774 158.682 274.988 157.71C287.348 152.285 300.01 138.215 305.279 125.829C305.868 124.445 306.72 123.075 308.21 122.569C309.698 122.063 311.277 122.286 312.649 123.013C313.761 123.603 314.66 124.487 314.999 125.73C315.529 127.673 314.54 130.047 313.603 131.73C304.536 148.022 291.572 164.973 272.955 170.336Q274.53 175.286 276.41 180.128C282.494 179.599 288.551 177.28 294.539 177.08C297.129 176.994 299.255 178.049 301.101 179.835C306.755 185.304 310.836 192.517 315.49 198.788C318.032 202.213 321.296 205.592 323.416 209.261C324.074 210.4 324.583 211.699 324.58 213.031C324.578 214.254 324.029 215.302 323.136 216.128C322.396 216.812 321.284 217.14 320.287 217.061C318.45 216.916 316.101 215.62 314.828 214.319C311.561 210.98 309.172 205.553 306.597 201.591C303.568 196.932 300.089 192.463 296.574 188.158C293.851 188.599 291.128 188.856 288.381 189.093L278.533 190.172C279.776 195.736 280.098 201.588 280.581 207.262C284.096 211.172 293.166 216.687 294.43 221.273L293.671 221.301C287.301 217.192 275.938 204.355 269.934 198.389L209.578 137.727C209.428 134.047 209.554 130.265 210.67 126.726C212.987 119.375 218.537 115.402 225.072 111.986C225.266 106.639 223.372 95.9959 227.355 91.9872C228.347 90.9897 229.683 90.4668 231.086 90.4781C233.024 90.4936 234.981 91.461 236.317 92.8353C240.265 96.8968 238.969 106.064 238.946 111.513C244.589 114.624 249.698 117.928 252.777 123.814C256.361 130.669 255.354 136.918 253.143 143.955C258.4 140.31 262.15 135.982 266.076 131.006C266.207 120.626 264.329 102.029 267.041 92.7926C269.414 84.7119 275.126 76.6383 282.563 72.5496Z"/>
	<path fill="#457B5D" d="M192.894 170.798C183.967 163.579 175.766 154.782 167.464 146.838Q155.595 135.479 143.98 123.86C138.952 118.865 133.701 113.95 129.152 108.51C127.702 106.776 125.656 104.528 125.443 102.196C125.17 99.1979 126.756 96.7221 128.648 94.5729C130.546 92.4176 132.906 90.1827 135.934 90.0361C139.099 89.8827 141.791 91.9274 143.969 93.9871C154.311 103.767 164.083 114.363 174.156 124.445L241.086 191.331L286.438 236.838C294.035 244.425 302.473 251.811 309.519 259.862C311.25 261.84 312.492 264.002 312.563 266.702C312.626 269.095 311.582 271.251 309.9 272.912Q309.53 273.279 309.126 273.607Q308.721 273.935 308.285 274.221Q307.85 274.507 307.388 274.748Q306.926 274.988 306.442 275.181Q305.958 275.374 305.457 275.518Q304.956 275.661 304.443 275.754Q303.931 275.846 303.411 275.886Q302.892 275.927 302.371 275.915Q301.729 275.89 301.098 275.773Q300.467 275.655 299.859 275.447Q299.252 275.239 298.681 274.945Q298.11 274.651 297.588 274.277C294.538 272.136 291.649 268.569 288.98 265.931L269.65 246.889L216.371 193.919C208.622 186.24 200.112 178.953 192.894 170.798Z"/>
	<path fill="#353F41" d="M177.458 73.0354L177.695 73.0279C182.171 72.9031 186.019 74.7476 189.238 77.8105C195.597 83.86 199.071 92.4673 199.235 101.173C199.295 104.347 199.647 123.265 198.444 124.519L197.173 123.53C194.347 120.694 191.375 117.974 188.481 115.206C189.114 109.741 189.812 103.711 189.547 98.2197C189.257 92.1876 187.337 87.7305 182.881 83.676C181.26 83.4845 179.369 83.3861 177.829 82.852C176.396 82.3552 174.24 80.5776 173.62 79.15C173.215 78.2164 173.19 77.3132 173.543 76.3674C174.175 74.6759 175.897 73.7092 177.458 73.0354Z"/>
	<path fill="#457B5D" d="M732.591 61.5383C739.154 58.4407 738.281 55.0417 747.295 53.9526C754.663 53.0625 762.39 54.2237 768.324 58.9345C774.661 63.9648 777.876 72.3333 778.711 80.1833C779.625 88.7692 777.798 99.1008 772.227 105.933C768.189 110.887 762.475 114.04 756.118 114.677C756.03 114.704 755.943 114.736 755.853 114.757C745.866 117.098 740.713 112.43 733.263 107.214C733.342 107.382 733.381 107.457 733.45 107.644C734.443 110.327 734.397 134.337 733.243 136.689C728.328 137.07 723.231 136.83 718.294 136.848C718.546 136.469 718.778 136.068 718.92 135.633C719.544 133.731 719.189 62.9044 718.961 57.1953C718.917 56.0916 718.723 55.2448 718.235 54.2493C723.068 53.5238 728.416 53.9142 733.316 53.9073C733.425 54.191 733.445 54.2212 733.52 54.4891C734.202 56.941 733.801 59.331 732.591 61.5383ZM733.472 95.8229C736.672 99.4138 739.722 102.714 744.894 103.007C747.173 103.136 749.376 103.048 751.597 102.501C755.756 101.669 758.959 99.7436 761.32 96.1696C764.538 91.2968 764.893 84.3242 763.719 78.7543C762.853 74.646 760.779 70.9665 757.212 68.6347C753.559 66.2467 748.909 65.6958 744.644 66.2497C741.099 66.8198 737.96 67.7779 735.776 70.8982C731.239 77.3806 735.167 88.325 733.472 95.8229Z"/>
	<path fill="#457B5D" d="M487.112 33.7482C492.121 33.2266 497.224 33.3953 502.257 33.4014C502.382 33.6583 502.497 33.9197 502.592 34.1895C502.987 35.314 503.528 98.0927 502.571 100.073L513.892 100.182C514.789 104.048 515.29 126.021 513.602 129.056C508.831 128.906 504.004 129.078 499.228 129.099C499.472 128.698 499.697 128.272 499.817 127.815C500.504 125.182 500.407 116.896 499.048 114.495L435.262 114.497C435.558 114.044 435.731 113.644 435.834 113.109C436.443 109.944 436.751 92.5053 435.291 90.3716Q435.7 89.6062 435.928 88.7687C436.923 84.9569 436.057 67.6255 436.056 62.7672C436.055 54.1126 436.658 45.2086 436.133 36.5806C436.075 35.6381 435.883 34.9072 435.396 34.094Q443 33.9048 450.606 33.9931C450.635 34.045 450.667 34.0953 450.692 34.1489C450.996 34.7908 451.25 35.5479 451.293 36.2601C451.622 41.7091 451.334 98.0662 450.654 99.7771C462.573 98.9568 475.166 99.5697 487.125 99.7557C487.305 99.4923 487.46 99.2276 487.578 98.9306C488.013 97.8346 488.034 40.7283 487.72 35.7631C487.676 35.0655 487.4 34.3782 487.112 33.7482Z"/>
	<path fill="#457B5D" d="M546.206 53.2497C553.55 52.8702 560.736 53.6328 566.952 57.8844C573.784 62.5567 577.591 70.0236 579.046 78.0058C579.644 81.2856 580.524 86.2187 578.49 89.1488C563.864 88.6702 549.147 89.1378 534.507 89.0322C537.285 91.3406 538.88 96.9272 542.519 100.075C548.25 105.031 557.014 104.355 563.296 100.952C564.83 100.12 566.587 98.1811 568.285 98.0462L568.782 98.7486C570.824 99.9386 575.262 103.298 576.098 105.503C576.019 105.846 575.967 106.056 575.774 106.354C573.155 110.409 564.794 113.355 560.286 114.323C551.39 116.233 541.659 115.566 533.899 110.498C527.429 106.271 523.383 100.024 521.802 92.4988C519.944 83.6571 520.755 73.9324 525.783 66.2438C530.797 58.5771 537.476 55.0924 546.206 53.2497ZM534.459 78.061L551.875 78.0811C556.054 78.072 560.292 78.2134 564.463 78.0476C565.05 75.6865 564.372 73.1624 563.125 71.1066C561.016 67.6303 556.972 65.2456 553.078 64.3308C551.373 63.9302 549.563 63.9673 547.84 64.2494C542.27 66.1978 539.409 68.3652 536.8 73.771C536.082 75.2592 535.481 76.7483 534.459 78.061Z"/>
	<path fill="#457B5D" d="M698.279 160.25C705.681 159.395 713.266 159.388 719.972 163.058C726.526 166.645 731.255 172.901 733.323 180.045C734.441 183.908 736.129 191.902 734.137 195.532C728.705 195.537 693.741 194.76 691.437 195.791C691.366 196.008 691.304 196.236 691.293 196.466C691.164 199.17 694.007 203.361 695.877 205.213C699.51 208.813 704.534 210.516 709.594 210.451C714.491 210.389 719.639 208.708 723.092 205.123L723.215 204.993C723.732 204.903 724.292 204.92 724.818 204.902C726.98 206.419 730.827 209.423 732.026 211.771C730.331 215.427 722.364 218.848 718.821 220.16C710.873 223.103 700.838 222.981 693.122 219.36Q692.472 219.05 691.838 218.708Q691.204 218.367 690.587 217.995Q689.97 217.624 689.372 217.223Q688.774 216.822 688.196 216.392Q687.617 215.963 687.061 215.506Q686.504 215.049 685.97 214.566Q685.436 214.083 684.926 213.574Q684.416 213.066 683.931 212.533Q683.446 212.001 682.988 211.446Q682.529 210.89 682.098 210.313Q681.667 209.737 681.264 209.14Q680.861 208.543 680.487 207.927Q680.114 207.311 679.771 206.678Q679.427 206.045 679.115 205.396Q678.803 204.747 678.522 204.084Q678.241 203.421 677.993 202.745C675.038 194.52 675.416 183.891 679.177 175.984C683.124 167.685 689.91 163.258 698.279 160.25ZM689.636 184.981L708.375 184.941L720.956 185C721.302 182.857 719.82 179.095 718.567 177.366C716.199 174.1 711.862 171.639 707.88 171.057C706.02 170.785 704.053 170.958 702.211 171.25C697.359 172.918 694.914 174.424 692.604 179.139C691.747 180.889 691.096 183.698 689.636 184.981Z"/>
	<path fill="#457B5D" d="M528.778 161.108C533.811 161.046 538.868 161.207 543.903 161.267C544.415 162.285 544.236 217.742 543.626 220.024L542.136 220.75C538.367 221.613 532.64 220.89 528.66 220.912C528.756 220.684 528.846 220.462 528.921 220.227C529.561 218.231 529.501 183.344 528.975 182.305C525.43 189.202 507.541 216.974 502.313 220.735C497.032 221.035 491.679 220.848 486.388 220.817C488.162 217.857 487.059 169.384 487.125 161.25C491.824 161.303 496.542 161.175 501.243 161.15C501.378 161.402 501.504 161.657 501.608 161.923C502.613 164.497 502.554 197.166 501.389 199.864Q501.76 199.595 502.109 199.298C505.841 196.111 528.516 164.396 528.778 161.108Z"/>
	<path fill="#457B5D" d="M608.265 161.249C613.051 160.651 618.266 161.03 623.104 161.033C623.37 161.464 623.613 161.921 623.744 162.413C624.704 166.019 624.481 191.966 624.002 196.531C623.897 197.531 623.571 198.492 623.094 199.375Q623.639 199.009 624.144 198.589C626.176 196.89 648.219 163.949 648.408 161.728C653.63 161.456 658.919 161.599 664.15 161.59C664.285 161.787 664.401 161.98 664.495 162.201C665.564 164.711 665.461 217.914 664.538 220.389L663.148 220.868C658.586 221.133 653.897 220.928 649.321 220.933C649.55 220.559 649.753 220.166 649.867 219.74C650.772 216.368 650.25 188.129 649.827 183.544C649.752 182.723 649.446 182.035 649.027 181.333C649.026 181.397 649.028 181.462 649.024 181.526C648.822 184.882 627.039 217.714 623.737 220.484L608.215 220.205C608.353 219.96 608.46 219.742 608.559 219.479C609.68 216.48 609.394 163.748 608.265 161.249Z"/>
	<path fill="#457B5D" d="M816.321 161.25C820.809 160.713 825.715 161.071 830.253 161.071C830.534 161.52 830.819 162.03 830.926 162.554C831.594 165.832 831.937 176.707 830.252 179.414C837.437 179.361 845.306 178.748 852.292 180.533C857.78 181.934 862.858 184.91 865.763 189.907C868.824 195.169 869.04 202.952 867.486 208.709C866.678 211.7 865.093 214.194 862.368 215.75C862.289 215.977 862.2 216.131 862.024 216.297C854.668 223.244 826.562 220.805 816.332 220.848C817.54 217.9 817.55 165.909 816.321 161.25ZM830.541 208.834C835.789 208.953 847.075 210.433 850.911 206.616C851.112 206.416 851.079 206.449 851.216 206.26C852.728 205.53 853.707 204.633 854.241 202.993C854.932 200.865 854.708 198.366 853.628 196.406C852.334 194.056 849.729 192.83 847.235 192.18C842.14 190.853 836.328 191.253 831.077 191.25C831.54 195.364 832.413 205.364 830.541 208.834Z"/>
	<path fill="#457B5D" d="M786.102 160.971L801.159 160.939C801.417 161.343 801.632 161.758 801.764 162.221C802.911 166.255 801.943 191.645 801.947 197.137C801.952 203.947 802.425 210.779 802.245 217.581C802.217 218.641 802.235 219.509 801.706 220.461L800.114 220.792C795.478 220.869 790.814 220.71 786.177 220.653C786.471 220.218 786.717 219.749 786.825 219.23C787.498 215.973 787.676 199.172 786.094 196.542L759.758 196.57C759.951 196.885 760.115 197.203 760.246 197.549C761.079 199.748 761.345 218.264 760.305 220.557L745.141 220.455C745.187 220.374 745.231 220.292 745.279 220.212C745.456 219.921 745.625 219.656 745.759 219.341C746.555 217.468 746.31 163.628 745.329 161.25C749.961 160.654 755.04 161.032 759.727 161.035C759.944 161.39 760.136 161.749 760.274 162.143C761.252 164.924 761.354 181.393 760.061 183.967L786.227 184.015C786.633 183.464 786.935 182.9 787.092 182.227C787.757 179.378 787.547 163.168 786.102 160.971Z"/>
	<path fill="#457B5D" d="M630.806 54.6776C635.628 54.7437 640.513 54.9848 645.319 54.5364C645.483 54.8583 645.63 55.1769 645.747 55.5197C646.716 58.3728 646.398 105.461 646.054 111.224C645.992 112.246 645.761 113.08 645.294 113.994L632.925 114.045L632.448 113.955C629.819 110.198 633.683 94.5215 630.662 90.0009L604.19 89.9733C604.231 90.0579 604.27 90.1433 604.313 90.2271C604.547 90.6884 604.761 91.1318 604.891 91.6359C605.739 94.9082 605.716 111.591 604.151 114.054C599.447 113.901 594.694 114.09 589.985 114.152C590.172 113.793 590.334 113.43 590.46 113.045C591.033 111.301 591.011 62.0973 590.575 56.5143C590.527 55.9009 590.26 55.302 589.985 54.7591Q596.875 54.8366 603.765 54.7501L604.551 55.0205C604.677 55.2421 604.784 55.4664 604.873 55.706C605.579 57.6059 605.51 76.1958 604.649 78.0306L630.916 78.0578C630.949 78.0041 630.984 77.9519 631.014 77.8968C631.064 77.8054 631.107 77.7104 631.156 77.6186C631.312 77.3251 631.472 77.0361 631.574 76.7178C632.419 74.0838 632.041 57.1969 630.806 54.6776Z"/>
	<path fill="#353F41" d="M741.272 265.75C746.324 265.9 751.215 266.515 755.337 269.712C759.529 272.962 761.597 277.914 762.252 283.068C763.048 289.343 762.056 295.961 758.085 301.055C755.009 305.001 750.664 307.488 745.688 308.068C739.607 308.776 735.315 306.806 730.665 303.088C730.686 303.146 730.71 303.202 730.726 303.26C731.372 305.528 731.376 309.737 730.151 311.752C730.455 312.221 730.708 312.717 730.839 313.264C731.448 315.805 731.422 320.375 730.133 322.644Q725.198 322.717 720.264 322.875C720.468 322.399 720.644 321.911 720.741 321.4C721.529 317.232 721.242 273.834 720.74 268.329C720.655 267.401 720.344 266.636 719.829 265.867C723.24 265.873 726.655 265.84 730.06 266.078C731.244 267.278 730.422 268.839 731.154 270.338C734.774 267.489 736.673 266.241 741.272 265.75ZM730.679 279.518C730.709 279.615 730.74 279.712 730.767 279.809C732.292 285.131 728.892 295.635 734.95 299.021C737.091 300.218 740.97 300.115 743.287 299.387C743.39 299.354 743.492 299.319 743.594 299.286C746.373 298.732 748.396 297.435 750.007 295.075C752.244 291.8 752.662 287.44 751.883 283.619C751.256 280.545 749.619 277.799 746.932 276.102C744.21 274.382 740.876 274.247 737.776 274.75C734.835 275.877 733.25 277.996 730.679 279.518Z"/>
	<path fill="#457B5D" d="M654.44 54.7494C660.236 53.9391 666.834 54.5058 672.703 54.5891C684.602 54.7581 696.645 55.1235 708.532 54.5338C708.768 54.9001 708.989 55.2909 709.112 55.7112C709.966 58.6257 709.976 65.3438 708.571 67.9984C701.937 67.7742 695.232 67.9674 688.59 67.9587C688.759 68.2155 688.869 68.392 688.958 68.6886C689.792 71.4754 689.576 92.1676 688.264 94.2529C688.544 94.6976 688.779 95.149 688.932 95.654C689.639 97.9838 689.811 111.688 688.602 114.007L674.429 114.058C674.71 113.658 674.947 113.224 675.048 112.741C675.851 108.919 675.578 75.2162 675.047 70.165C674.96 69.3349 674.639 68.6496 674.17 67.9716L654.137 67.9755C654.258 67.7964 654.366 67.6264 654.466 67.4354C655.833 64.8359 655.305 57.4925 654.44 54.7494Z"/>
	<path fill="#457B5D" d="M436.26 161.247C441.154 160.64 446.494 161.016 451.429 161.026L477.635 161.019C477.833 161.32 478.011 161.628 478.14 161.966C478.978 164.178 478.936 172.175 477.948 174.344C468.908 173.75 459.77 174.448 450.704 174.085C450.999 174.518 451.234 174.976 451.348 175.49C452.105 178.89 452.614 190.405 450.832 193.248C451.049 193.579 451.24 193.915 451.381 194.286C452.393 196.955 452.255 218.345 451.197 220.634C446.322 221.062 441.052 220.592 436.139 220.522C436.341 220.177 436.525 219.828 436.664 219.452C437.464 217.29 437.238 169.077 436.888 163.552C436.835 162.729 436.594 161.996 436.26 161.247Z"/>
	<path fill="#457B5D" d="M558.282 161.249C562.987 160.693 568.032 161.008 572.779 161.008L599.351 161.033C599.608 161.463 599.832 161.909 599.963 162.395C600.608 164.785 600.612 172.226 599.422 174.376C592.745 173.219 579.899 174.039 572.545 174.018C572.843 174.502 573.111 175.015 573.237 175.574C573.954 178.759 574.382 190.856 572.557 193.755C572.817 194.14 573.04 194.548 573.166 194.997C573.99 197.927 573.889 218.555 572.661 220.652L558.106 220.574C558.252 220.344 558.387 220.116 558.5 219.866C559.335 218.028 559.314 164.175 558.282 161.249Z"/>
	<path fill="#353F41" d="M691.541 265.75C696.375 265.553 700.547 265.759 704.828 268.24C709.181 270.764 712.778 275.429 714.024 280.32C714.735 283.115 715.168 288.007 713.678 290.553Q698.733 290.618 683.789 290.515C685.188 291.676 685.811 293.804 686.781 295.329C688.215 297.581 689.991 299.309 692.683 299.866C697.392 300.84 701.892 299.338 705.778 296.786L706.665 297.088C708.499 298.063 710.811 299.547 711.648 301.526C711.591 301.704 711.6 301.709 711.48 301.895C709.34 305.215 703.049 307.365 699.313 307.89C693.138 308.759 686.948 308.093 681.873 304.201C677.429 300.793 674.731 295.518 674.036 290.01C673.279 284.012 674.62 277.642 678.401 272.843C681.838 268.48 686.128 266.418 691.541 265.75ZM683.508 282.762Q689.69 282.551 695.875 282.64L704.106 282.647C704.415 280.682 703.802 278.83 702.619 277.24C701.123 275.23 698.237 273.754 695.75 273.44C694.381 273.267 692.969 273.519 691.619 273.749C686.958 276.063 686.308 278.879 683.508 282.762Z"/>
	<path fill="#353F41" d="M835.197 266.824C838.2 266.753 841.219 266.909 844.222 267C844.424 267.322 844.601 267.641 844.737 267.998C845.798 270.775 845.473 303.799 844.401 306.252L844.306 307.308C841.221 308.013 837.461 307.575 834.288 307.541C834.416 307.352 834.53 307.166 834.626 306.958C835.768 304.494 835.385 283.899 834.329 280.667C834.333 280.903 834.318 281.131 834.277 281.366C833.875 283.668 818.066 306.151 815.876 307.686C812.739 307.781 809.595 307.757 806.457 307.774C806.503 307.689 806.552 307.605 806.596 307.519C807.764 305.247 807.451 270.173 806.406 267.25C809.509 266.692 812.921 266.881 816.074 266.813C816.115 266.894 816.154 266.975 816.197 267.054C816.452 267.533 816.708 268.017 816.808 268.557C817.586 272.781 817.599 291.247 815.398 294.319C815.44 294.286 815.483 294.254 815.525 294.221C816.254 293.646 817.046 293.174 817.622 292.426C819.651 289.792 834.685 268.742 835.197 266.824Z"/>
	<path fill="#353F41" d="M465.73 266.749L474.2 267.001C474.427 267.44 474.625 267.894 474.743 268.376C475.235 270.401 475.058 301.72 474.815 305.325C474.761 306.126 474.506 306.795 474.111 307.484L464.315 307.485C464.487 307.23 464.645 306.965 464.755 306.676C465.864 303.769 465.392 282.763 464.161 279.872C464.148 280.22 464.139 280.561 464.08 280.905C463.589 283.751 448.304 305.435 445.711 307.253C444.287 308.365 438.165 307.684 436.203 307.636C436.442 307.285 436.652 306.917 436.775 306.509C437.665 303.553 437.357 273.726 436.921 269.201C436.837 268.325 436.541 267.57 436.098 266.815L445.639 266.908C445.854 267.274 446.06 267.66 446.2 268.063C447.298 271.208 447.254 290.31 445.936 293.28C449.866 290.755 462.341 271.688 465.73 266.749Z"/>
	<path fill="#353F41" d="M892.613 266.75L900.644 266.593C900.863 266.939 901.076 267.318 901.186 267.716C901.881 270.233 901.966 278.264 900.576 280.524C905.53 280.447 910.865 280.024 915.67 281.442C919.323 282.52 922.296 285.163 924.079 288.498C925.858 291.824 926.438 295.979 925.279 299.594C924.494 302.043 923.143 303.574 920.883 304.75C920.754 305.042 920.601 305.317 920.379 305.549C916.579 309.534 896.624 308.035 890.992 308.004C893.144 304.684 891.129 274.881 891.784 267.34L892.613 266.75ZM900.779 299.68C904.281 299.817 910.098 300.683 913.134 298.776L913.487 298.25C914.896 297.432 915.534 296.461 916.374 295.089C916.464 293.875 916.463 293.277 915.656 292.276C913.598 289.723 908.54 288.343 905.38 288.128C903.845 288.024 902.298 288.132 900.766 288.25C901.481 290.809 901.847 297.275 900.779 299.68Z"/>
	<path fill="#353F41" d="M628.906 266.75Q647.772 266.664 666.637 266.785C666.864 267.143 667.039 267.517 667.144 267.929C667.964 271.15 667.471 301.135 666.931 305.24C666.844 305.901 666.526 306.512 666.182 307.073C663.175 307.084 660.152 307.299 657.148 307.442Q657.426 306.688 657.606 305.904C658.336 302.764 658.45 287.669 656.94 285.26C657.213 284.872 657.443 284.462 657.564 284C658.205 281.558 658.334 277.211 657.108 274.996L637.428 275.011C637.679 275.46 637.879 275.913 638.013 276.412C638.847 279.518 638.943 304.656 637.623 307.063C634.513 306.918 631.304 307.14 628.185 307.196C630.056 304.162 629.052 272.517 628.906 266.75Z"/>
	<path fill="#457B5D" d="M876.388 161.25Q883.384 161.134 890.381 161.191C890.629 161.854 890.847 162.534 890.94 163.238C891.33 166.183 891.513 217.956 890.79 219.474C890.604 219.865 890.064 220.396 889.785 220.75C885.61 221.522 880.267 220.943 875.961 220.962C875.999 220.87 876.035 220.778 876.075 220.687C877.298 217.931 876.938 166.628 876.388 161.25Z"/>
	<path fill="#353F41" d="M570.152 266.509C573.822 266.313 577.513 266.406 581.187 266.427C581.172 266.62 581.174 266.659 581.129 266.87C580.779 268.533 567.124 285.142 565.374 286.384C568.088 287.756 573.222 294.281 574.206 297.252Q574.491 297.416 574.754 297.614C576.867 299.19 581.434 304.877 581.741 307.419C578.518 306.999 574.771 307.3 571.497 307.301C571.273 305.996 562.874 296.594 561.377 295.07C559.881 293.547 557.843 291.598 555.588 291.577C552.698 293.935 555.937 303.074 553.793 306.831C553.742 306.92 553.687 307.007 553.634 307.095L544.309 307.051C544.433 306.824 544.535 306.586 544.632 306.346C545.442 304.346 545.179 268.733 544.347 266.749C547.209 266.395 550.256 266.571 553.144 266.556C556.1 271.31 551.983 279.388 554.75 284.115L555.806 284.333C556.3 284.083 556.776 283.812 557.223 283.482C558.692 282.398 569.918 268.133 570.152 266.509Z"/>
	<path fill="#353F41" d="M601.938 265.75C606.178 265.587 610.221 265.845 614.27 267.19C617.145 268.145 621.565 270.405 622.959 273.189C622.953 273.257 622.955 273.327 622.94 273.394C622.505 275.354 618.777 277.934 617.119 278.882C616.468 277.914 615.597 277.255 614.626 276.639C611.251 274.498 607.114 273.402 603.145 274.321C599.799 275.095 596.562 277.196 594.764 280.146C592.974 283.082 592.495 286.761 593.318 290.085C594.163 293.493 596.282 296.551 599.343 298.325Q599.865 298.623 600.414 298.867Q600.964 299.112 601.534 299.3Q602.105 299.488 602.692 299.618Q603.279 299.748 603.876 299.818Q604.473 299.889 605.074 299.899Q605.676 299.91 606.275 299.86Q606.874 299.81 607.465 299.701Q608.056 299.591 608.633 299.423C610.652 298.856 614.257 297.625 615.317 295.749C615.62 295.591 615.954 295.407 616.287 295.327C617.572 295.023 618.641 295.747 619.655 296.475C620.861 297.341 622.421 298.926 622.688 300.412C622.587 300.787 622.448 301.154 622.19 301.452C618.993 305.135 613.247 307.452 608.517 308.047C602.398 308.816 595.834 308.182 590.833 304.265C586.353 300.757 583.877 295.37 583.236 289.796C582.558 283.9 583.846 277.534 587.625 272.844C591.271 268.321 596.3 266.371 601.938 265.75Z"/>
	<path fill="#353F41" d="M862.825 265.75C867.602 265.64 874.382 265.525 878.527 268.148C880.864 269.627 883.459 272.728 883.955 275.458C884.931 280.826 880.073 283.059 877.485 286.698C878.021 286.924 878.541 287.201 879.043 287.494Q879.463 287.734 879.856 288.016Q880.249 288.298 880.612 288.618Q880.975 288.938 881.303 289.293Q881.631 289.648 881.922 290.035Q882.213 290.422 882.463 290.836Q882.713 291.25 882.92 291.687Q883.127 292.124 883.288 292.58Q883.45 293.036 883.564 293.506C884.305 296.458 883.932 299.905 882.359 302.524C880.696 305.292 877.919 307.104 874.809 307.834C864.747 310.196 859.033 307.554 850.714 302.383C852.764 300.757 854.774 297.726 855.612 295.25C859.253 295.958 861.384 299.645 865.656 300.003C868.067 300.205 871.42 299.999 873.274 298.292C874.1 297.531 874.454 296.579 874.453 295.479C874.452 294.383 873.82 293.384 873.062 292.632C869.961 289.558 865.82 289.897 861.808 289.893C862.406 287.294 862.438 285.149 861.352 282.677C863.96 282.775 867.682 283.17 870.082 282.051C871.584 281.35 872.6 280.434 873.189 278.883C873.156 278.042 873.222 277.389 872.792 276.634C872.028 275.293 870.611 274.528 869.143 274.175C862.678 272.623 860.839 275.695 856.105 278.525C856.042 278.564 855.977 278.6 855.912 278.637C854.44 275.948 852.702 272.971 850.12 271.228C854.882 269.275 857.367 266.424 862.825 265.75Z"/>
	<path fill="#353F41" d="M508.698 266.249C514.183 265.615 520.723 265.215 525.836 267.601C530.286 269.677 533.463 273.557 535.101 278.138C537.291 284.261 537.265 291.893 534.416 297.805C532.321 302.154 528.721 305.61 524.131 307.201C514.112 310.673 508.205 306.762 499.61 302.644C501.553 301.241 503.967 297.981 504.558 295.647C506.359 296.66 507.944 297.779 509.566 299.054C512.309 300.017 515.226 300.655 518.129 300.166C521.089 299.667 524.223 298.532 525.977 295.946C526.995 294.446 527.893 291.574 527.58 289.768C522.247 289.624 516.897 289.672 511.561 289.639C511.659 289.456 511.673 289.438 511.761 289.221C512.361 287.733 512.045 285.208 511.406 283.789C516.834 283.827 522.269 283.921 527.694 283.724C527.544 281.979 526.721 280.127 525.86 278.613C524.547 276.304 522.563 274.822 519.999 274.157C514.271 272.672 509.484 275.198 504.709 277.963C504.706 277.897 504.71 277.829 504.701 277.763C504.406 275.528 501.591 272.732 499.973 271.27C502.831 269.431 505.656 267.769 508.698 266.249Z"/>
	<path fill="#353F41" d="M763.927 266.75C776.165 266.915 788.417 266.805 800.656 266.812C800.857 267.114 801.02 267.43 801.132 267.776C801.883 270.1 801.68 272.865 800.616 275.04C795.929 274.805 791.126 275.021 786.428 275.023C786.691 275.466 786.903 275.93 787.02 276.434C787.814 279.878 788.278 291.906 786.523 294.758C786.844 295.23 787.091 295.703 787.226 296.263C787.893 299.023 788.088 305.08 786.653 307.514L776.768 307.568C777.071 307.066 777.368 306.425 777.483 305.844C778.228 302.118 778.37 277.576 776.695 275.013L763.277 275.085C764.723 272.905 764.062 269.23 763.927 266.75Z"/>
	<path fill="#353F41" d="M930.807 267.249C933.779 266.524 937.167 266.861 940.217 266.914C940.508 267.368 940.69 267.799 940.746 268.336C941.113 271.866 941.432 304.771 940.834 305.967C940.636 306.364 940.08 306.893 939.789 307.25L930.743 307.461C930.995 307.085 931.2 306.701 931.333 306.266C932.234 303.329 931.881 269.148 930.807 267.249Z"/>
</svg>
